<svg width="0" height="0" class="hidden">
  <symbol viewBox="0 0 5 5" fill="none" xmlns="http://www.w3.org/2000/svg" id="point">
    <circle cx="2.5" cy="2.5" r="2.5" fill="#2FCE4B"></circle>
  </symbol>

  <symbol viewBox="0 0 30 30" fill="none" xmlns="http://www.w3.org/2000/svg" id="insta-icon">
    <path d="M10.001 15a5 5 0 1 1 10-.001A5 5 0 0 1 10 15zm-2.703 0a7.702 7.702 0 1 0 15.404 0 7.702 7.702 0 0 0-15.404 0zm13.91-8.008a1.8 1.8 0 1 0 1.8-1.799 1.8 1.8 0 0 0-1.8 1.8zM8.94 27.21c-1.462-.067-2.257-.31-2.785-.516a4.66 4.66 0 0 1-1.725-1.122 4.628 4.628 0 0 1-1.122-1.724c-.206-.528-.45-1.324-.516-2.786-.073-1.581-.088-2.056-.088-6.062s.016-4.48.088-6.062c.066-1.462.312-2.256.516-2.785.272-.7.597-1.2 1.122-1.726a4.623 4.623 0 0 1 1.725-1.122c.528-.206 1.323-.45 2.785-.516 1.582-.072 2.057-.087 6.06-.087 4.004 0 4.48.016 6.062.087 1.463.067 2.256.312 2.786.516.7.272 1.2.598 1.725 1.122.526.525.85 1.025 1.122 1.726.206.528.45 1.323.516 2.785.073 1.583.087 2.056.087 6.062s-.014 4.48-.087 6.062c-.066 1.462-.311 2.257-.516 2.785-.272.7-.597 1.2-1.122 1.725a4.66 4.66 0 0 1-1.725 1.122c-.528.206-1.323.45-2.786.516-1.58.072-2.056.087-6.062.087-4.005 0-4.479-.015-6.06-.087zM8.816.09C7.22.165 6.128.418 5.176.789a7.357 7.357 0 0 0-2.658 1.73 7.329 7.329 0 0 0-1.73 2.657c-.37.953-.624 2.044-.697 3.64-.074 1.6-.09 2.112-.09 6.185 0 4.073.016 4.585.09 6.184.073 1.597.326 2.688.697 3.641a7.333 7.333 0 0 0 1.73 2.657 7.376 7.376 0 0 0 2.657 1.73c.955.371 2.044.624 3.641.697 1.6.073 2.111.091 6.184.091 4.074 0 4.585-.017 6.185-.09 1.597-.074 2.687-.327 3.64-.698a7.377 7.377 0 0 0 2.658-1.73 7.348 7.348 0 0 0 1.73-2.657c.37-.953.625-2.044.697-3.64.072-1.601.09-2.111.09-6.185 0-4.073-.018-4.585-.09-6.184-.073-1.597-.326-2.688-.697-3.641a7.377 7.377 0 0 0-1.73-2.657 7.34 7.34 0 0 0-2.656-1.73C23.872.417 22.78.162 21.186.09c-1.6-.072-2.11-.09-6.184-.09s-4.586.017-6.186.09z" fill="#fff"></path>
  </symbol>

  <symbol viewBox="0 0 30 30" fill="none" xmlns="http://www.w3.org/2000/svg" id="facebook-icon">
    <path d="M4.395 30h9.785V19.336h-3.516V15.82h3.516v-4.394a4.4 4.4 0 0 1 4.394-4.395h4.395v3.516h-3.516a1.76 1.76 0 0 0-1.758 1.758v3.515h5.115l-.586 3.516h-4.529V30h7.91A4.4 4.4 0 0 0 30 25.605V4.395A4.4 4.4 0 0 0 25.605 0H4.395A4.4 4.4 0 0 0 0 4.395v21.21A4.4 4.4 0 0 0 4.395 30zM1.758 4.395a2.64 2.64 0 0 1 2.637-2.637h21.21a2.64 2.64 0 0 1 2.637 2.637v21.21a2.64 2.64 0 0 1-2.637 2.637h-6.152v-7.148h4.26l1.172-7.032h-5.432v-1.757h5.274V5.273h-6.153a6.16 6.16 0 0 0-6.152 6.153v2.636H8.906v7.032h3.516v7.148H4.395a2.64 2.64 0 0 1-2.637-2.637V4.395z" fill="#fff"></path>
  </symbol>

  <symbol viewBox="0 0 24 24" fill="none" xmlns="http://www.w3.org/2000/svg" id="phone-icon">
    <path d="M4.863 15.954a25.545 25.545 0 0 0 8.502 6.634c1.243.586 2.905 1.283 4.757 1.402.115.005.225.01.34.01 1.242 0 2.24-.428 3.055-1.308a.11.11 0 0 0 .02-.025c.289-.348.619-.661.963-.994.235-.224.474-.458.704-.697 1.063-1.104 1.063-2.506-.01-3.575l-3-2.99c-.51-.526-1.118-.805-1.758-.805-.639 0-1.253.279-1.777.801l-1.787 1.78a9.428 9.428 0 0 0-.494-.258 6.14 6.14 0 0 1-.549-.299c-1.627-1.03-3.105-2.372-4.518-4.098-.714-.9-1.193-1.655-1.527-2.426a31.07 31.07 0 0 0 1.333-1.298c.15-.154.304-.309.459-.463.539-.537.829-1.159.829-1.79 0-.632-.285-1.253-.83-1.79L8.089 2.283c-.174-.174-.34-.344-.509-.518-.33-.338-.674-.686-1.013-1C6.052.265 5.448 0 4.809 0 4.175 0 3.566.264 3.03.77L1.164 2.63A3.815 3.815 0 0 0 .021 5.078c-.095 1.19.125 2.452.694 3.979.874 2.362 2.192 4.555 4.148 6.898zM1.24 5.182c.06-.661.315-1.214.794-1.69l1.857-1.85c.29-.28.61-.424.919-.424.304 0 .614.145.898.433.335.308.65.632.989.975l.519.527 1.487 1.482c.31.308.47.622.47.93 0 .308-.16.621-.47.93l-.464.467c-.464.468-.899.91-1.378 1.333l-.025.025c-.414.413-.35.806-.25 1.104l.016.04c.384.92.918 1.795 1.752 2.84 1.497 1.84 3.075 3.267 4.812 4.366.215.139.444.248.659.358.2.1.384.194.55.298l.054.03c.165.084.324.124.484.124.4 0 .66-.253.744-.338l1.867-1.86c.29-.288.604-.442.913-.442.38 0 .69.233.884.442l3.01 2.994c.6.597.594 1.243-.015 1.875-.21.224-.43.438-.664.661-.35.338-.713.687-1.043 1.08-.574.616-1.258.905-2.142.905-.084 0-.174-.006-.26-.01-1.636-.105-3.159-.741-4.302-1.284a24.267 24.267 0 0 1-8.092-6.315c-1.862-2.233-3.115-4.312-3.944-6.54-.514-1.367-.709-2.466-.629-3.466z" fill="#E9E9E9"></path>
  </symbol>
</svg>